<svg width="256" height="256" fill="none" version="1.1" viewBox="0 0 256 256" xmlns="http://www.w3.org/2000/svg"><rect width="256" height="256" rx="60" fill="#242938"/><g transform="matrix(4.8724 0 0 4.8724 8.7892 15.962)"><g fill="#cfd8dc"><path d="m23.084 11.277c-1.633-2.449-1.986-5.722-2.063-7.067-4.148 0.897-8.269 2.506-8.031 3.691 0.03 0.149 0.218 0.328 0.53 0.502l-0.488 0.873c-0.596-0.334-0.931-0.719-1.022-1.179-0.269-1.341 1.25-2.554 4.642-3.709a42.152 42.152 0 0 1 4.751-1.279l0.597-0.12v0.611c0 0.042 0.026 4.288 1.916 7.123zm1.667 31.723h-0.251c-8.192 0-17.309-2.573-18.386-6.879-0.657-2.63 1.492-5.536 6.214-8.401l0.52 0.854c-4.249 2.579-6.296 5.172-5.763 7.305 0.935 3.738 9.575 6.068 17.153 6.12 0.901-1.347 5.742-9.26 2.979-19.873l0.967-0.252c3.149 12.092-3.218 20.837-3.282 20.924z"/><path d="m9.931 39.306c-0.539 0-0.806-0.059-0.85-0.07a0.498 0.498 0 0 1-0.233-0.84c0.072-0.072 7.197-7.208 8.159-12.978l0.986 0.164c-0.827 4.964-5.715 10.623-7.656 12.707 1.939-0.111 6.835-1.019 16.234-6.28-7.335-0.804-8.495-6.676-8.507-6.739l0.983-0.181c0.047 0.246 1.226 6.011 9.244 6.011h8e-3a0.5 0.5 0 0 1 0.251 0.933c-11.235 6.509-16.683 7.272-18.619 7.273z"/><path d="m14.524 41.7a0.499 0.499 0 0 1-0.291-0.907c0.034-0.025 1.813-1.338 3.706-4.228a19.896 19.896 0 0 1-2.196-1.137c-0.888-0.533-1.559-1.105-2.06-1.691-2.57 0.678-4.942 0.946-7.025 0.769l0.084-0.996c1.876 0.159 4.009-0.063 6.321-0.64-1.573-2.688-0.129-5.356-0.109-5.392l0.874 0.487c-0.067 0.122-1.265 2.37 0.249 4.633 2.201-0.632 4.549-1.567 6.979-2.782a32.189 32.189 0 0 0 1.225-6.276 0.501 0.501 0 0 1 0.706-0.406c0.032 0.015 3.264 1.491 5.604 2.454a0.5 0.5 0 0 1 0.091 0.876 62.494 62.494 0 0 1-6.778 4.042 27.19 27.19 0 0 1-2.459 5.591c3.702 1.383 6.915 1.404 6.956 1.404a0.5 0.5 0 0 1 0.243 0.938c-4.54 2.522-11.767 3.232-12.072 3.261zm4.385-4.733c-1.04 1.614-2.062 2.773-2.826 3.53 1.998-0.294 5.501-0.938 8.408-2.139a23.733 23.733 0 0 1-5.582-1.391zm-4.142-3.536c0.393 0.392 0.883 0.775 1.49 1.14 0.736 0.442 1.483 0.817 2.22 1.135a26.116 26.116 0 0 0 2.142-4.568c-2.021 0.962-3.983 1.73-5.852 2.293zm8.435-9.102a33.95 33.95 0 0 1-0.913 4.85 62.45 62.45 0 0 0 5.062-3.026 207.1 207.1 0 0 1-4.149-1.824zm-5.278-13.729a0.504 0.504 0 0 1-0.325-0.12c-1.61-1.378-3.505-4.182-3.585-4.301a0.5 0.5 0 0 1 0.654-0.718c0.011 3e-3 0.938 0.385 7.217 1.431a0.499 0.499 0 0 1 0.29 0.828c-1.758 1.953-3.979 2.813-4.073 2.848a0.527 0.527 0 0 1-0.178 0.032zm-2.277-3.854c0.631 0.849 1.54 1.996 2.372 2.769a11.186 11.186 0 0 0 2.744-1.798c-2.583-0.441-4.159-0.755-5.116-0.971z"/></g><g fill="#b71c1c"><path d="m21.843 24.4a0.5 0.5 0 0 1-0.497-0.552c0.292-2.749-3.926-3.852-3.969-3.862a0.5 0.5 0 0 1-0.23-0.838c0.207-0.207 5.139-5.098 11.327-7.784a0.5 0.5 0 0 1 0.689 0.559c-1.186 5.744-6.71 12.044-6.944 12.309a0.51 0.51 0 0 1-0.376 0.168zm-3.388-5.115c1.184 0.445 3.258 1.475 3.783 3.356 1.449-1.808 4.542-5.973 5.697-9.934-4.387 2.11-8.081 5.292-9.48 6.578z"/><path d="m13.079 28.36-0.475-0.88c1.883-1.015 4.04-2.883 5.807-5.054-1.504 1.03-2.365 1.735-2.392 1.758l-0.639-0.77c0.039-0.032 1.764-1.447 4.631-3.22 0.787-1.266 1.392-2.568 1.703-3.816 0.053-0.212 0.099-0.417 0.136-0.615-1.925-0.687-3.701-1.094-4.921-1.269a0.5 0.5 0 0 1-0.297-0.835c0.085-0.092 2.116-2.268 4.654-3.463a0.5 0.5 0 0 1 0.581 0.114c0.067 0.073 1.44 1.615 1.091 4.805 1.155 0.45 2.345 0.997 3.491 1.648 2.759-1.24 5.892-2.356 9.229-3.03a0.51 0.51 0 0 1 0.481 0.168c0.117 0.14 0.149 0.333 0.083 0.503-1.3 3.332-4.786 6.891-4.934 7.041a0.503 0.503 0 0 1-0.748-0.04c-1.12-1.408-2.584-2.574-4.163-3.523a55.136 55.136 0 0 0-5.684 3.049c-2.02 3.153-5.069 6.048-7.634 7.429zm14.413-10.964c1.29 0.832 2.491 1.81 3.484 2.948 0.828-0.898 2.815-3.168 3.942-5.422-2.65 0.61-5.158 1.493-7.426 2.474zm-4.693-1.274c-0.033 0.163-0.071 0.33-0.113 0.5-0.21 0.839-0.544 1.701-0.972 2.561a56.183 56.183 0 0 1 3.618-1.898 25.476 25.476 0 0 0-2.533-1.163zm-4.751-2.45c1.111 0.218 2.48 0.574 3.941 1.086 0.152-1.843-0.346-2.972-0.647-3.472-1.376 0.718-2.581 1.728-3.294 2.386z"/><path d="m18.05 18.5c0 4.38-3.65 7.86-6.28 10.4-0.44 0.43-1.93 0.5-1.93 0.5 0.37-0.38 0.79-0.78 1.24-1.21 2.5-2.42 5.97-5.73 5.97-9.69 0-4.69-1.89-6.54-3.38-8.02-0.66-0.67-1.22-1.31-1.56-2.09l0.31-0.13c0.34 0.15 0.73 0.32 1.03 0.45 0.24 0.35 0.56 0.69 0.93 1.06 1.53 1.53 3.67 3.63 3.67 8.73z"/><path d="m42.935 19.794s-0.605 0.086-0.775 0.106c-8.76 0.97-17.8 3.49-22.97 5.56-1.87 0.75-3.81 1.66-5.58 2.68-0.01 0.01-0.02 0.01-0.04 0.02-1.04 0.6-3.57 1.84-5.62 2.93 3-3.19 8.62-5.65 10.86-6.55 5.07-2.03 13.78-4.48 22.35-5.53-1.01-1.18-3.48-3.68-8.34-5.54-2.84-1.1-7.16-1.72-10.97-2.27-6.06-0.87-9.51-1.45-9.84-3.1-0.07-0.33-0.02-0.66 0.13-0.98 0.33 0.54 0.8 0.92 1.11 1.14 0.15 0.1 0.26 0.16 0.3 0.18l0.01 0.01c1.42 0.75 5.25 1.3 8.44 1.76 3.86 0.56 8.23 1.19 11.18 2.32 6.87 2.65 9.24 6.44 9.34 6.6 0.09 0.15 0.415 0.664 0.415 0.664z"/></g></g></svg>